<svg fill="none" height="394" viewBox="0 0 394 394" width="394" xmlns="http://www.w3.org/2000/svg"><g stroke-linecap="round" stroke-linejoin="round" stroke-width="6.25"><g stroke="#231f20"><path d="m53.25 259.5h337.5v12.5c0 1.658-.658 3.247-1.831 4.419-1.172 1.173-2.761 1.831-4.419 1.831h-325c-1.6576 0-3.2473-.658-4.4194-1.831-1.1721-1.172-1.8306-2.761-1.8306-4.419z" fill="#3380ff"/><path d="m53.25 259.5h125v12.5c0 1.658-.658 3.247-1.831 4.419-1.172 1.173-2.761 1.831-4.419 1.831h-112.5c-1.6576 0-3.2473-.658-4.4194-1.831-1.1721-1.172-1.8306-2.761-1.8306-4.419z" fill="#1e4bde"/><path d="m115.75 65.75h212.5c16.576 0 32.473 6.5848 44.194 18.3058s18.306 27.6182 18.306 44.1942v131.25h-337.5v-131.25c0-16.576 6.5848-32.4732 18.3058-44.1942s27.6182-18.3058 44.1942-18.3058z" fill="#4ef7ff"/><path d="m328.25 65.75h-25c16.576 0 32.473 6.5848 44.194 18.3058s18.306 27.6182 18.306 44.1942v131.25h25v-131.25c0-16.576-6.585-32.4732-18.306-44.1942s-27.618-18.3058-44.194-18.3058z" fill="#3df"/><path d="m115.75 65.75h25c16.576 0 32.473 6.5848 44.194 18.3058s18.306 27.6182 18.306 44.1942v131.25h-150v-131.25c0-16.576 6.5848-32.4732 18.3058-44.1942s27.6182-18.3058 44.1942-18.3058z" fill="#3df"/><path d="m115.75 65.75c8.208 0 16.335 1.6166 23.918 4.7575s14.473 7.7447 20.276 13.5483c5.804 5.8037 10.408 12.6936 13.548 20.2762 3.141 7.583 4.758 15.71 4.758 23.918v131.25h-125v-131.25c0-16.576 6.5848-32.4732 18.3058-44.1942s27.6182-18.3058 44.1942-18.3058z" fill="#3380ff"/><path d="m259.5 278.25h-68.75v112.5h68.75z" fill="#e4ac4d"/><path d="m265.75 278.25h-43.75v112.5h43.75z" fill="#fff7ae"/><path d="m265.75 278.25h-43.75v12.5h43.75z" fill="#ffc800"/><path d="m222 278.25h-31.25v12.5h31.25z" fill="#ff8b00"/><path d="m284.5 15.75c0-3.3152-1.317-6.49463-3.661-8.83883-2.344-2.34421-5.524-3.66117-8.839-3.66117h-31.25c-1.658 0-3.247.65848-4.419 1.83058-1.173 1.1721-1.831 2.76182-1.831 4.41942v212.5h12.5v-181.25h25c3.315 0 6.495-1.317 8.839-3.6612s3.661-5.5236 3.661-8.8388z" fill="#ff3446"/><path d="m240.75 240.75c10.355 0 18.75-8.395 18.75-18.75s-8.395-18.75-18.75-18.75-18.75 8.395-18.75 18.75 8.395 18.75 18.75 18.75z" fill="#ffc800"/><path d="m139.624 259.5h-117.4115c-2.1063 0-4.1418-.76-5.733-2.14s-2.6312-3.287-2.9291-5.372l-9.99999-70.001c-.1773-1.241-.08585-2.505.26815-3.708.354-1.202.96228-2.315 1.78367-3.262.82138-.947 1.83668-1.707 2.97714-2.227 1.14047-.521 2.37943-.79 3.63313-.79h114.9115z" fill="#21ce62"/></g><path d="m23.9987 234.5h26.1263" stroke="#ecf8ff"/><path d="m53.25 247h-26.1263" stroke="#ecf8ff"/><path d="m108.374 190.75-2.344-18.75h-93.5771c-1.2708 0-2.52635.277-3.67934.811-1.15298.535-2.17574 1.314-2.99714 2.283-.82141.97-1.42174 2.107-1.75927 3.332-.33752 1.225-.40413 2.509-.19519 3.763l.00331.019c.26199 1.572.94837 3.043 1.98505 4.254 1.03669 1.21 2.3843 2.114 3.89739 2.615l61.72889 20.423z" stroke="#231f20"/><path d="m177.934 122h-137.0944c-1.7369 0-3.4548.362-5.044 1.063s-3.015 1.725-4.1863 3.008c-1.1712 1.282-2.0624 2.795-2.6166 4.441-.5541 1.646-.7592 3.389-.602 5.119l10.2276 112.5c.2823 3.107 1.7159 5.996 4.0193 8.099 2.3033 2.104 5.3099 3.27 8.4292 3.27h127.1832v-131.25c0-2.11-.111-4.194-.316-6.25z" fill="#ffc800" stroke="#231f20"/><path d="m178.25 128.25c0-2.11-.111-4.194-.316-6.25h-136.8166c-1.758 0-3.4961.371-5.101 1.088-1.6049.718-3.0405 1.765-4.2129 3.075-1.1725 1.31-2.0554 2.853-2.5913 4.527-.5358 1.674-.7125 3.443-.5184 5.19.255 2.295 1.1846 4.464 2.6714 6.232 1.4867 1.768 3.464 3.055 5.682 3.7l90.1048 26.188h51.098z" fill="#ffc800" stroke="#231f20"/><path d="m85.9 240.75h-31.25l-2.5-25h31.25z" fill="#ff8b00" stroke="#ff8b00"/><path d="m178.25 259.5h-93.6927c-1.7072 0-3.3963-.35-4.9631-1.028-1.5669-.677-2.9783-1.669-4.1472-2.913-1.1689-1.245-2.0706-2.715-2.6494-4.321s-.8224-3.314-.7159-5.018l4.6875-75c.1983-3.174 1.5991-6.153 3.9169-8.33 2.3179-2.178 5.3785-3.39 8.5587-3.39h89.0052z" fill="#fffcdf" stroke="#231f20"/><path d="m88.4391 234.5h21.0609" stroke="#231f20"/><path d="m107.937 247h-21.0604" stroke="#231f20"/><path d="m115 193.875h-25l1.5625-18.75h24.9995z" fill="#ff3446" stroke="#ff3446"/><path d="m343.875 206.375h-43.75v31.25h43.75z" fill="#5796ff" stroke="#5796ff"/><path d="m309.5 215.75h25" stroke="#fff"/><path d="m334.5 228.25h-25" stroke="#fff"/><path d="m178.25 259.5h-43.321c-1.729 0-3.439-.359-5.022-1.053-1.583-.695-3.005-1.711-4.176-2.983s-2.065-2.774-2.626-4.409c-.561-1.636-.776-3.37-.632-5.093l4.166-50c.261-3.125 1.686-6.037 3.993-8.161 2.308-2.123 5.329-3.301 8.464-3.301h39.154z" fill="#ff366a" stroke="#231f20"/><path d="m155.719 247h-18.75l1.562-12.5h18.75z" fill="#ffb9c9" stroke="#ffb9c9"/><path d="m140.094 197h18.75" stroke="#231f20"/><path d="m140.094 209.5h9.375" stroke="#231f20"/></g></svg>